<svg width="16" height="16" viewBox="0 0 16 16" fill="none" xmlns="http://www.w3.org/2000/svg">
<path d="M12.5858 0.585786C13.3668 -0.195262 14.6332 -0.195262 15.4142 0.585786C16.1953 1.36684 16.1953 2.63316 15.4142 3.41421L10.8284 8L15.4142 12.5858C16.1953 13.3668 16.1953 14.6332 15.4142 15.4142C14.6332 16.1953 13.3668 16.1953 12.5858 15.4142L8 10.8284L3.41421 15.4142C2.63317 16.1953 1.36683 16.1953 0.585786 15.4142C-0.195262 14.6332 -0.195262 13.3668 0.585786 12.5858L5.17157 8L0.585787 3.41421C-0.195262 2.63316 -0.195262 1.36684 0.585787 0.585786C1.36684 -0.195262 2.63317 -0.195262 3.41421 0.585786L8 5.17157L12.5858 0.585786Z" fill="#81411F"/>
</svg>
