<svg xmlns="http://www.w3.org/2000/svg" viewBox="0 0 166.79 109.29"><defs><style>.cls-1{fill:#804c11;}</style></defs><g id="Layer_2" data-name="Layer 2"><g id="Layer_1-2" data-name="Layer 1"><path class="cls-1" d="M166.79,76.91h-2l-23.27-50.1a3.64,3.64,0,0,0,.43-.45,9.43,9.43,0,0,0,5.47-8.46c.06-4.5-4-9.45-9-7.59-2.43.92-2.68,4.94-.45,6.24.64.37,2.05.71,2.46-.19.57-1.23-1.4-.65-1.4-.65l-.09-.14a1.9,1.9,0,0,1-.33-.92h0v-.23h0a1.79,1.79,0,0,1,0-.23v0c0-.07,0-.14.05-.21v0a1.52,1.52,0,0,1,.06-.2.08.08,0,0,1,0,0l.07-.18,0-.06.09-.15,0-.07.09-.14.06-.08.1-.11.08-.09.1-.09.1-.09.09-.07.14-.09.07-.05.23-.12c2.55-1.16,4.58,2.08,4,4.31a7.29,7.29,0,0,1-.48,1.27,5.37,5.37,0,0,1-.67,1c-.09.1-.17.2-.26.29-1.75,1.77-4.55,1.85-7.06.95a11,11,0,0,1-2-.95c-3.35-2.06-6.42-4.54-9.62-6.84a51.47,51.47,0,0,0-6-3.81c-.25-.13-.49-.26-.75-.38C108.2,3.59,96.92,3.37,87.37,6.92h0l-.1,0c-.49.19-1,.38-1.47.59l-.27.11-1,.45L84.35,4a2.17,2.17,0,0,0,1.71-1.95,2.74,2.74,0,0,0-5.32,0,2.17,2.17,0,0,0,1.7,2L82.26,8.1l-1-.45L81,7.54c-.49-.21-1-.4-1.47-.59l-.09,0h0C69.88,3.37,58.59,3.59,49.5,8.14l-.75.38c-5.57,3-10.21,7.36-15.58,10.65l-.35.21c-2.36,1.33-5.34,1.8-7.5.67a5.06,5.06,0,0,1-2.46-3c-.05-.15-.1-.3-.14-.45-.6-2.23,1.43-5.47,4-4.31l.23.12.08.05.13.09.09.08.11.08.09.1.09.08.09.11.07.08.09.14a.43.43,0,0,1,0,.07,1.19,1.19,0,0,1,.09.15l0,.06.08.18,0,0,.06.2v0c0,.07,0,.14,0,.21v0a1.81,1.81,0,0,1,0,.23h0a1.85,1.85,0,0,1,0,.23h0a2,2,0,0,1-.32.92h0a.71.71,0,0,1-.1.14s-2-.58-1.39.65c.41.9,1.81.56,2.45.19,2.24-1.3,2-5.32-.45-6.24-4.93-1.86-9,3.09-9,7.59a9.43,9.43,0,0,0,5.47,8.46,3.73,3.73,0,0,0,.44.45L2,76.91H0l0,.19a17.24,17.24,0,0,0,1.11,3.27h0a15.41,15.41,0,0,0,1.43,2.5l0,0a6.41,6.41,0,0,0,.39.52l.09.12c.13.17.26.33.4.49l0,0c.27.31.55.6.84.89a1.21,1.21,0,0,0,.16.16l.37.34.27.25.35.3.37.28.31.25c.22.16.45.33.68.48l.26.17.53.34.29.17.57.32.26.14c.28.15.57.3.86.43.47.23,1,.44,1.47.64l.19.07.63.24.27.1.61.2.32.1a6.13,6.13,0,0,0,.61.18l.36.11.6.16.4.1.6.14.44.1.6.13.47.09.6.11.5.08.6.09.54.08.59.08.58.06.59.07.61,0,.59,0,.66.05.56,0,.73,0,.54,0,.85,0h.44l1.32,0,1.33,0h.44l.85,0,.53,0,.73,0,.56,0,.67-.05h.15l.43,0,.62,0,.59-.07L35,91.4l.6-.08.54-.08.59-.09.51-.08.59-.11.48-.09.59-.13.44-.1.6-.14.4-.1.6-.16.37-.11q.3-.07.6-.18l.32-.1.61-.2.28-.1.63-.24.18-.07.61-.25c.29-.12.58-.25.86-.39s.58-.28.86-.43l.27-.14.56-.32.29-.17.53-.34.26-.17c.23-.15.46-.32.68-.48l.32-.25.36-.28.35-.3.28-.25.37-.34.15-.16c.29-.29.57-.58.84-.89l0,0c.14-.16.27-.32.4-.49l.1-.12c.13-.17.26-.34.38-.52l0,0A16,16,0,0,0,55,77.1l0-.19H53L30,27.35c9.85-1,25.36-15.36,36.22-13.82,8.71,1.23,13.47,5.5,15.43,7.75L78.06,99.46a10.93,10.93,0,0,0-.08,1.73H66.69s-13.46.3-17.13,5.46H49a1.32,1.32,0,1,0,0,2.64h69.14a1.32,1.32,0,0,0,0-2.64h-.89c-3.67-5.16-17.12-5.46-17.12-5.46H88.81a10.93,10.93,0,0,0-.08-1.73L85.14,21.28c2-2.25,6.73-6.52,15.44-7.75C111.44,12,126.94,26.35,136.8,27.35l-23,49.56h-2l0,.19a17.24,17.24,0,0,0,1.11,3.27h0a15.41,15.41,0,0,0,1.43,2.5l0,0,.39.52.09.12c.13.17.26.33.4.49l0,0c.26.31.54.6.83.89.05,0,.1.11.16.16l.37.34.27.25.36.3.36.29.31.24c.22.16.45.33.69.48l.25.17.53.34.29.17.57.32.26.14c.28.15.57.3.86.43s.52.24.79.36h0l.67.27.2.08.62.24.28.1.61.2.33.1a5.26,5.26,0,0,0,.6.18l.36.11.6.16.41.1.59.14.44.1.6.13L129,91l.6.11.5.08.6.09.54.08.59.08.58.06.59.07.61,0,.59,0,.66.05.57,0,.72,0,.54,0,.85,0H138l1.32,0,1.33,0h.44l.85,0,.53,0,.73,0,.57,0,.66-.05.58,0,.62,0,.59-.07.57-.06.6-.08.54-.08.59-.09.51-.08.6-.11.47-.09.59-.13.44-.1.6-.14.4-.1.6-.16.37-.11q.3-.07.6-.18l.33-.1.6-.2.28-.1.63-.24.19-.07.6-.25.07,0h0c.27-.12.54-.23.79-.36s.58-.28.86-.43l.27-.14.56-.32.29-.17.53-.34.26-.17c.23-.15.46-.32.68-.48l.32-.24.36-.29.35-.3.28-.25.37-.34.15-.16c.3-.29.57-.58.84-.89l0,0c.14-.16.27-.32.4-.49l.1-.12.39-.52v0a15.46,15.46,0,0,0,1.44-2.5h0a16.54,16.54,0,0,0,1.1-3.27Zm-3.36,0H139.92V27.57a3.07,3.07,0,0,0,.52-.14ZM26.35,27.43a3.18,3.18,0,0,0,.53.14V76.91H3.37Zm1.77,49.48V27.58a2.64,2.64,0,0,0,.55-.15l23,49.48Zm110-49.48a2.73,2.73,0,0,0,.56.15V76.91H115.14Z"/></g></g></svg>