<svg xmlns="http://www.w3.org/2000/svg" viewBox="0 0 745.19 807.55"><defs><style>.cls-1{fill:#b79f78;}</style></defs><g id="Layer_2" data-name="Layer 2"><g id="Layer_1-2" data-name="Layer 1"><path class="cls-1" d="M744.83,147.11a3,3,0,0,0-2.93-1.57L609.4,158.45,735.68,4.9A3,3,0,0,0,736,1.59,3,3,0,0,0,733.07,0L2.71,71.2A3,3,0,0,0,0,74.48L71.2,804.84a3,3,0,0,0,2.12,2.58,3.22,3.22,0,0,0,.87.13,3,3,0,0,0,2.32-1.1L236.3,612.14l12.91,132.5a3,3,0,0,0,2.12,2.58,2.87,2.87,0,0,0,.87.13,3,3,0,0,0,2.32-1.09l490-595.83A3,3,0,0,0,744.83,147.11ZM76.47,797.05,6.28,76.88,726.44,6.69,601,159.28,199,198.46a3,3,0,0,0-2.69,3.28l39.18,402ZM595.56,165.83,240.87,597.15l-38.31-393Zm-341.08,571L241.69,605.59,604,165l131.26-12.8Z"/></g></g></svg>